<mxfile host="app.diagrams.net" modified="2020-12-02T09:40:44.473Z" agent="5.0 (Windows NT 10.0; Win64; x64) AppleWebKit/537.36 (KHTML, like Gecko) Chrome/86.0.4240.198 Safari/537.36" etag="4fqQC2ygtOKWyOMZqSXl" version="13.10.4" type="github">
  <diagram id="oP8JLZlku0rKLcxGhh1m" name="Page-1">
    <mxGraphModel dx="1422" dy="762" grid="1" gridSize="10" guides="1" tooltips="1" connect="1" arrows="1" fold="1" page="1" pageScale="1" pageWidth="827" pageHeight="1169" math="0" shadow="0">
      <root>
        <mxCell id="0" />
        <mxCell id="1" parent="0" />
        <mxCell id="CmbxM8cclJhc92rk9ol_-4" style="rounded=0;orthogonalLoop=1;jettySize=auto;html=1;exitX=0.5;exitY=1;exitDx=0;exitDy=0;entryX=0.145;entryY=0;entryDx=0;entryDy=4.35;entryPerimeter=0;" edge="1" parent="1" source="ycrEhYVsE76QyJ7blhV_-65" target="CmbxM8cclJhc92rk9ol_-1">
          <mxGeometry relative="1" as="geometry" />
        </mxCell>
        <mxCell id="ycrEhYVsE76QyJ7blhV_-65" value="WebUI" style="rounded=0;whiteSpace=wrap;html=1;" parent="1" vertex="1">
          <mxGeometry x="220" y="60" width="90" height="50" as="geometry" />
        </mxCell>
        <mxCell id="CmbxM8cclJhc92rk9ol_-5" style="edgeStyle=none;rounded=0;orthogonalLoop=1;jettySize=auto;html=1;exitX=0.5;exitY=1;exitDx=0;exitDy=0;entryX=0.855;entryY=0;entryDx=0;entryDy=4.35;entryPerimeter=0;" edge="1" parent="1" source="ycrEhYVsE76QyJ7blhV_-66" target="CmbxM8cclJhc92rk9ol_-1">
          <mxGeometry relative="1" as="geometry">
            <mxPoint x="340" y="150" as="targetPoint" />
          </mxGeometry>
        </mxCell>
        <mxCell id="ycrEhYVsE76QyJ7blhV_-66" value="CLI" style="rounded=0;whiteSpace=wrap;html=1;" parent="1" vertex="1">
          <mxGeometry x="369" y="60" width="90" height="50" as="geometry" />
        </mxCell>
        <mxCell id="ycrEhYVsE76QyJ7blhV_-76" style="rounded=0;orthogonalLoop=1;jettySize=auto;html=1;exitX=0.25;exitY=1;exitDx=0;exitDy=0;entryX=0.5;entryY=0;entryDx=0;entryDy=0;" parent="1" source="ycrEhYVsE76QyJ7blhV_-67" target="ycrEhYVsE76QyJ7blhV_-70" edge="1">
          <mxGeometry relative="1" as="geometry" />
        </mxCell>
        <mxCell id="ycrEhYVsE76QyJ7blhV_-77" style="edgeStyle=none;rounded=0;orthogonalLoop=1;jettySize=auto;html=1;exitX=0.5;exitY=1;exitDx=0;exitDy=0;entryX=0.5;entryY=0;entryDx=0;entryDy=0;" parent="1" source="ycrEhYVsE76QyJ7blhV_-67" edge="1">
          <mxGeometry relative="1" as="geometry">
            <mxPoint x="340" y="374" as="targetPoint" />
          </mxGeometry>
        </mxCell>
        <mxCell id="ycrEhYVsE76QyJ7blhV_-78" style="edgeStyle=none;rounded=0;orthogonalLoop=1;jettySize=auto;html=1;exitX=0.75;exitY=1;exitDx=0;exitDy=0;entryX=0.5;entryY=0;entryDx=0;entryDy=0;" parent="1" source="ycrEhYVsE76QyJ7blhV_-67" edge="1">
          <mxGeometry relative="1" as="geometry">
            <mxPoint x="490" y="374" as="targetPoint" />
          </mxGeometry>
        </mxCell>
        <mxCell id="ycrEhYVsE76QyJ7blhV_-67" value="vpp-agent proxy" style="rounded=0;whiteSpace=wrap;html=1;" parent="1" vertex="1">
          <mxGeometry x="280" y="251" width="120" height="60" as="geometry" />
        </mxCell>
        <mxCell id="ycrEhYVsE76QyJ7blhV_-69" value="masterip:2379" style="text;html=1;strokeColor=none;fillColor=none;align=center;verticalAlign=middle;whiteSpace=wrap;rounded=0;" parent="1" vertex="1">
          <mxGeometry x="430" y="271" width="40" height="20" as="geometry" />
        </mxCell>
        <mxCell id="ycrEhYVsE76QyJ7blhV_-92" style="edgeStyle=none;rounded=0;orthogonalLoop=1;jettySize=auto;html=1;exitX=0.5;exitY=1;exitDx=0;exitDy=0;entryX=0.5;entryY=0;entryDx=0;entryDy=0;" parent="1" source="ycrEhYVsE76QyJ7blhV_-70" target="ycrEhYVsE76QyJ7blhV_-89" edge="1">
          <mxGeometry relative="1" as="geometry" />
        </mxCell>
        <mxCell id="ycrEhYVsE76QyJ7blhV_-93" style="edgeStyle=none;rounded=0;orthogonalLoop=1;jettySize=auto;html=1;exitX=0.75;exitY=1;exitDx=0;exitDy=0;entryX=0.5;entryY=0;entryDx=0;entryDy=0;" parent="1" source="ycrEhYVsE76QyJ7blhV_-70" target="ycrEhYVsE76QyJ7blhV_-90" edge="1">
          <mxGeometry relative="1" as="geometry" />
        </mxCell>
        <mxCell id="ycrEhYVsE76QyJ7blhV_-70" value="" style="rounded=0;whiteSpace=wrap;html=1;" parent="1" vertex="1">
          <mxGeometry x="140" y="374" width="100" height="50" as="geometry" />
        </mxCell>
        <mxCell id="ycrEhYVsE76QyJ7blhV_-91" style="edgeStyle=none;rounded=0;orthogonalLoop=1;jettySize=auto;html=1;exitX=0.5;exitY=1;exitDx=0;exitDy=0;entryX=0.5;entryY=0;entryDx=0;entryDy=0;" parent="1" source="ycrEhYVsE76QyJ7blhV_-71" target="ycrEhYVsE76QyJ7blhV_-84" edge="1">
          <mxGeometry relative="1" as="geometry" />
        </mxCell>
        <mxCell id="ycrEhYVsE76QyJ7blhV_-71" value="node1" style="text;html=1;strokeColor=none;fillColor=none;align=center;verticalAlign=middle;whiteSpace=wrap;rounded=0;" parent="1" vertex="1">
          <mxGeometry x="140" y="404" width="40" height="20" as="geometry" />
        </mxCell>
        <mxCell id="ycrEhYVsE76QyJ7blhV_-81" value="node1ip:5002&lt;br&gt;node1ip:5003&lt;br&gt;node1ip:5004" style="text;html=1;strokeColor=none;fillColor=none;align=center;verticalAlign=middle;whiteSpace=wrap;rounded=0;" parent="1" vertex="1">
          <mxGeometry x="200" y="331" width="40" height="20" as="geometry" />
        </mxCell>
        <mxCell id="ycrEhYVsE76QyJ7blhV_-82" value="node1ip:5002&lt;br&gt;node1ip:5003&lt;br&gt;node1ip:5004" style="text;html=1;strokeColor=none;fillColor=none;align=center;verticalAlign=middle;whiteSpace=wrap;rounded=0;" parent="1" vertex="1">
          <mxGeometry x="320" y="331" width="40" height="20" as="geometry" />
        </mxCell>
        <mxCell id="ycrEhYVsE76QyJ7blhV_-83" value="node1ip:5002&lt;br&gt;node1ip:5003&lt;br&gt;node1ip:5004" style="text;html=1;strokeColor=none;fillColor=none;align=center;verticalAlign=middle;whiteSpace=wrap;rounded=0;" parent="1" vertex="1">
          <mxGeometry x="430" y="331" width="40" height="20" as="geometry" />
        </mxCell>
        <mxCell id="ycrEhYVsE76QyJ7blhV_-84" value="&lt;font color=&quot;#ff0000&quot;&gt;vpp1&lt;/font&gt;" style="rounded=0;whiteSpace=wrap;html=1;" parent="1" vertex="1">
          <mxGeometry x="124" y="461" width="30" height="40" as="geometry" />
        </mxCell>
        <mxCell id="ycrEhYVsE76QyJ7blhV_-89" value="vpp2" style="rounded=0;whiteSpace=wrap;html=1;" parent="1" vertex="1">
          <mxGeometry x="175" y="461" width="30" height="40" as="geometry" />
        </mxCell>
        <mxCell id="ycrEhYVsE76QyJ7blhV_-90" value="&lt;span&gt;vpp3&lt;/span&gt;" style="rounded=0;whiteSpace=wrap;html=1;" parent="1" vertex="1">
          <mxGeometry x="223" y="461" width="30" height="40" as="geometry" />
        </mxCell>
        <mxCell id="ycrEhYVsE76QyJ7blhV_-94" style="edgeStyle=none;rounded=0;orthogonalLoop=1;jettySize=auto;html=1;exitX=0.5;exitY=1;exitDx=0;exitDy=0;entryX=0.5;entryY=0;entryDx=0;entryDy=0;" parent="1" source="ycrEhYVsE76QyJ7blhV_-96" target="ycrEhYVsE76QyJ7blhV_-100" edge="1">
          <mxGeometry relative="1" as="geometry" />
        </mxCell>
        <mxCell id="ycrEhYVsE76QyJ7blhV_-95" style="edgeStyle=none;rounded=0;orthogonalLoop=1;jettySize=auto;html=1;exitX=0.75;exitY=1;exitDx=0;exitDy=0;entryX=0.5;entryY=0;entryDx=0;entryDy=0;" parent="1" source="ycrEhYVsE76QyJ7blhV_-96" target="ycrEhYVsE76QyJ7blhV_-101" edge="1">
          <mxGeometry relative="1" as="geometry" />
        </mxCell>
        <mxCell id="ycrEhYVsE76QyJ7blhV_-96" value="" style="rounded=0;whiteSpace=wrap;html=1;" parent="1" vertex="1">
          <mxGeometry x="291.5" y="374" width="100" height="50" as="geometry" />
        </mxCell>
        <mxCell id="ycrEhYVsE76QyJ7blhV_-97" style="edgeStyle=none;rounded=0;orthogonalLoop=1;jettySize=auto;html=1;exitX=0.5;exitY=1;exitDx=0;exitDy=0;entryX=0.5;entryY=0;entryDx=0;entryDy=0;" parent="1" source="ycrEhYVsE76QyJ7blhV_-98" target="ycrEhYVsE76QyJ7blhV_-99" edge="1">
          <mxGeometry relative="1" as="geometry" />
        </mxCell>
        <mxCell id="ycrEhYVsE76QyJ7blhV_-98" value="node2" style="text;html=1;strokeColor=none;fillColor=none;align=center;verticalAlign=middle;whiteSpace=wrap;rounded=0;" parent="1" vertex="1">
          <mxGeometry x="291.5" y="404" width="40" height="20" as="geometry" />
        </mxCell>
        <mxCell id="ycrEhYVsE76QyJ7blhV_-99" value="&lt;span&gt;vpp4&lt;/span&gt;" style="rounded=0;whiteSpace=wrap;html=1;" parent="1" vertex="1">
          <mxGeometry x="275.5" y="461" width="30" height="40" as="geometry" />
        </mxCell>
        <mxCell id="ycrEhYVsE76QyJ7blhV_-100" value="&lt;span&gt;vpp5&lt;/span&gt;" style="rounded=0;whiteSpace=wrap;html=1;" parent="1" vertex="1">
          <mxGeometry x="326.5" y="461" width="30" height="40" as="geometry" />
        </mxCell>
        <mxCell id="ycrEhYVsE76QyJ7blhV_-101" value="&lt;span&gt;vpp6&lt;/span&gt;" style="rounded=0;whiteSpace=wrap;html=1;" parent="1" vertex="1">
          <mxGeometry x="374.5" y="461" width="30" height="40" as="geometry" />
        </mxCell>
        <mxCell id="ycrEhYVsE76QyJ7blhV_-102" style="edgeStyle=none;rounded=0;orthogonalLoop=1;jettySize=auto;html=1;exitX=0.5;exitY=1;exitDx=0;exitDy=0;entryX=0.5;entryY=0;entryDx=0;entryDy=0;" parent="1" source="ycrEhYVsE76QyJ7blhV_-104" target="ycrEhYVsE76QyJ7blhV_-108" edge="1">
          <mxGeometry relative="1" as="geometry" />
        </mxCell>
        <mxCell id="ycrEhYVsE76QyJ7blhV_-103" style="edgeStyle=none;rounded=0;orthogonalLoop=1;jettySize=auto;html=1;exitX=0.75;exitY=1;exitDx=0;exitDy=0;entryX=0.5;entryY=0;entryDx=0;entryDy=0;" parent="1" source="ycrEhYVsE76QyJ7blhV_-104" target="ycrEhYVsE76QyJ7blhV_-109" edge="1">
          <mxGeometry relative="1" as="geometry" />
        </mxCell>
        <mxCell id="ycrEhYVsE76QyJ7blhV_-104" value="" style="rounded=0;whiteSpace=wrap;html=1;" parent="1" vertex="1">
          <mxGeometry x="436" y="374" width="100" height="50" as="geometry" />
        </mxCell>
        <mxCell id="ycrEhYVsE76QyJ7blhV_-105" style="edgeStyle=none;rounded=0;orthogonalLoop=1;jettySize=auto;html=1;exitX=0.5;exitY=1;exitDx=0;exitDy=0;entryX=0.5;entryY=0;entryDx=0;entryDy=0;" parent="1" source="ycrEhYVsE76QyJ7blhV_-106" target="ycrEhYVsE76QyJ7blhV_-107" edge="1">
          <mxGeometry relative="1" as="geometry" />
        </mxCell>
        <mxCell id="ycrEhYVsE76QyJ7blhV_-106" value="node3" style="text;html=1;strokeColor=none;fillColor=none;align=center;verticalAlign=middle;whiteSpace=wrap;rounded=0;" parent="1" vertex="1">
          <mxGeometry x="436" y="404" width="40" height="20" as="geometry" />
        </mxCell>
        <mxCell id="ycrEhYVsE76QyJ7blhV_-107" value="&lt;span&gt;vpp7&lt;/span&gt;" style="rounded=0;whiteSpace=wrap;html=1;" parent="1" vertex="1">
          <mxGeometry x="420" y="461" width="30" height="40" as="geometry" />
        </mxCell>
        <mxCell id="ycrEhYVsE76QyJ7blhV_-108" value="&lt;span&gt;vpp8&lt;/span&gt;" style="rounded=0;whiteSpace=wrap;html=1;" parent="1" vertex="1">
          <mxGeometry x="471" y="461" width="30" height="40" as="geometry" />
        </mxCell>
        <mxCell id="ycrEhYVsE76QyJ7blhV_-109" value="&lt;span&gt;vpp9&lt;/span&gt;" style="rounded=0;whiteSpace=wrap;html=1;" parent="1" vertex="1">
          <mxGeometry x="519" y="461" width="30" height="40" as="geometry" />
        </mxCell>
        <mxCell id="ycrEhYVsE76QyJ7blhV_-110" value="vpp1: 5002:5002" style="text;html=1;strokeColor=none;fillColor=none;align=center;verticalAlign=middle;whiteSpace=wrap;rounded=0;" parent="1" vertex="1">
          <mxGeometry x="142" y="511" width="96" height="20" as="geometry" />
        </mxCell>
        <mxCell id="ycrEhYVsE76QyJ7blhV_-111" value="vpp2: 5002:5003" style="text;html=1;strokeColor=none;fillColor=none;align=center;verticalAlign=middle;whiteSpace=wrap;rounded=0;" parent="1" vertex="1">
          <mxGeometry x="142" y="531" width="96" height="20" as="geometry" />
        </mxCell>
        <mxCell id="ycrEhYVsE76QyJ7blhV_-112" value="vpp3: 5002:5004" style="text;html=1;strokeColor=none;fillColor=none;align=center;verticalAlign=middle;whiteSpace=wrap;rounded=0;" parent="1" vertex="1">
          <mxGeometry x="142" y="551" width="96" height="20" as="geometry" />
        </mxCell>
        <mxCell id="ycrEhYVsE76QyJ7blhV_-113" value="&lt;div&gt;/vnf-agent/&lt;font color=&quot;#ff0000&quot;&gt;&lt;b&gt;vpp1&lt;/b&gt;&lt;/font&gt;/config/vpp/v2/interfaces/loop1 \&lt;/div&gt;&lt;div&gt;&#39;{&quot;name&quot;:&quot;loop1&quot;,&quot;type&quot;:&quot;SOFTWARE_LOOPBACK&quot;,&quot;enabled&quot;:true,&quot;ip_addresses&quot;:[&quot;192.168.1.1/24&quot;]}&#39;&lt;/div&gt;" style="text;html=1;strokeColor=none;fillColor=none;align=left;verticalAlign=middle;whiteSpace=wrap;rounded=0;" parent="1" vertex="1">
          <mxGeometry x="90" y="20" width="550" height="20" as="geometry" />
        </mxCell>
        <mxCell id="ycrEhYVsE76QyJ7blhV_-114" style="edgeStyle=none;rounded=0;orthogonalLoop=1;jettySize=auto;html=1;exitX=0.75;exitY=1;exitDx=0;exitDy=0;" parent="1" source="ycrEhYVsE76QyJ7blhV_-113" target="ycrEhYVsE76QyJ7blhV_-113" edge="1">
          <mxGeometry relative="1" as="geometry" />
        </mxCell>
        <mxCell id="CmbxM8cclJhc92rk9ol_-6" style="edgeStyle=none;rounded=0;orthogonalLoop=1;jettySize=auto;html=1;exitX=0.5;exitY=1;exitDx=0;exitDy=0;exitPerimeter=0;" edge="1" parent="1" source="CmbxM8cclJhc92rk9ol_-1" target="ycrEhYVsE76QyJ7blhV_-67">
          <mxGeometry relative="1" as="geometry" />
        </mxCell>
        <mxCell id="CmbxM8cclJhc92rk9ol_-1" value="etcd" style="shape=cylinder3;whiteSpace=wrap;html=1;boundedLbl=1;backgroundOutline=1;size=15;" vertex="1" parent="1">
          <mxGeometry x="291.5" y="150" width="100" height="60" as="geometry" />
        </mxCell>
        <mxCell id="CmbxM8cclJhc92rk9ol_-2" value="......" style="text;html=1;strokeColor=none;fillColor=none;align=center;verticalAlign=middle;whiteSpace=wrap;rounded=0;" vertex="1" parent="1">
          <mxGeometry x="280" y="530" width="96" height="20" as="geometry" />
        </mxCell>
        <mxCell id="CmbxM8cclJhc92rk9ol_-3" value="......" style="text;html=1;strokeColor=none;fillColor=none;align=center;verticalAlign=middle;whiteSpace=wrap;rounded=0;" vertex="1" parent="1">
          <mxGeometry x="436" y="530" width="96" height="20" as="geometry" />
        </mxCell>
        <mxCell id="ycrEhYVsE76QyJ7blhV_-115" value="" style="curved=1;endArrow=classic;html=1;entryX=0.5;entryY=0;entryDx=0;entryDy=0;strokeWidth=2;strokeColor=#FF0000;" parent="1" target="ycrEhYVsE76QyJ7blhV_-84" edge="1">
          <mxGeometry width="50" height="50" relative="1" as="geometry">
            <mxPoint x="190" y="10" as="sourcePoint" />
            <mxPoint x="250" y="200" as="targetPoint" />
            <Array as="points">
              <mxPoint x="350" y="140" />
              <mxPoint x="300" y="310" />
            </Array>
          </mxGeometry>
        </mxCell>
      </root>
    </mxGraphModel>
  </diagram>
</mxfile>
